<svg width="40" height="29" viewBox="0 0 40 29" fill="none" xmlns="http://www.w3.org/2000/svg">
<g filter="url(#filter0_d_992_352)">
<path d="M1 20.1639C1 20.8627 1.27351 21.3035 1.88131 21.5921C3.56796 22.4279 4.51005 23.3852 5.55851 25.4517C5.87761 26.0139 6.34866 26.3027 6.97166 26.3027H32.6057C33.2136 26.3027 33.6845 26.0139 34.0036 25.4517C35.0521 23.3852 35.9942 22.4279 37.6961 21.5921C38.3038 21.3035 38.5774 20.8627 38.5774 20.1639V6.15399C38.5774 5.43982 38.3038 4.99917 37.6961 4.72566C35.9942 3.88993 35.0521 2.91745 34.0036 0.86612C33.6845 0.288711 33.2136 0 32.6057 0H6.97166C6.34866 0 5.87761 0.288711 5.55851 0.86612C4.51005 2.91745 3.56796 3.88993 1.88131 4.72566C1.27351 4.99917 1 5.43982 1 6.15399V20.1639ZM7.24517 20.0879V6.22997C7.24517 5.40944 7.80738 4.84722 8.62791 4.84722H30.9342C31.77 4.84722 32.3169 5.40944 32.3169 6.22997V20.0879C32.3169 20.9236 31.77 21.4706 30.9342 21.4706H8.62791C7.80738 21.4706 7.24517 20.9236 7.24517 20.0879ZM9.17494 9.77047H11.2111V6.74659H9.50923C9.2813 6.74659 9.17494 6.88335 9.17494 7.09609V9.77047ZM9.17494 14.6632H11.2111V11.6698H9.17494V14.6632ZM9.17494 19.2217C9.17494 19.4497 9.2813 19.5713 9.50923 19.5713H11.2111V16.5626H9.17494V19.2217ZM28.3663 9.77047H30.4024V7.09609C30.4024 6.88335 30.2961 6.74659 30.0682 6.74659H28.3663V9.77047ZM28.3663 14.6632H30.4024V11.6698H28.3663V14.6632ZM28.3663 19.5713H30.0682C30.2961 19.5713 30.4024 19.4497 30.4024 19.2217V16.5626H28.3663V19.5713ZM13.1256 19.5713H26.4517V6.74659H13.1256V19.5713Z" fill="#2B4B88"/>
</g>
<defs>
<filter id="filter0_d_992_352" x="0" y="0" width="39.5771" height="28.3027" filterUnits="userSpaceOnUse" color-interpolation-filters="sRGB">
<feFlood flood-opacity="0" result="BackgroundImageFix"/>
<feColorMatrix in="SourceAlpha" type="matrix" values="0 0 0 0 0 0 0 0 0 0 0 0 0 0 0 0 0 0 127 0" result="hardAlpha"/>
<feOffset dy="1"/>
<feGaussianBlur stdDeviation="0.5"/>
<feComposite in2="hardAlpha" operator="out"/>
<feColorMatrix type="matrix" values="0 0 0 0 0 0 0 0 0 0 0 0 0 0 0 0 0 0 0.25 0"/>
<feBlend mode="normal" in2="BackgroundImageFix" result="effect1_dropShadow_992_352"/>
<feBlend mode="normal" in="SourceGraphic" in2="effect1_dropShadow_992_352" result="shape"/>
</filter>
</defs>
</svg>
