<svg width="34" height="34" viewBox="0 0 34 34" fill="none" xmlns="http://www.w3.org/2000/svg">
<g filter="url(#filter0_d_992_353)">
<path d="M8.65963 17.3845C8.04316 17.3845 7.58081 16.9221 7.58081 16.3056C7.58081 15.7045 8.04316 15.2421 8.65963 15.2421H15.6411V5.9181C15.6411 5.31705 16.1035 4.8547 16.7045 4.8547C17.3056 4.8547 17.7833 5.31705 17.7833 5.9181V16.3056C17.7833 16.9221 17.3056 17.3845 16.7045 17.3845H8.65963ZM16.7199 31.4399C25.3197 31.4399 32.4399 24.3043 32.4399 15.7199C32.4399 7.12022 25.3043 0 16.7045 0C8.12021 0 1 7.12022 1 15.7199C1 24.3043 8.13563 31.4399 16.7199 31.4399Z" fill="#2B4B88"/>
</g>
<defs>
<filter id="filter0_d_992_353" x="0" y="0" width="33.4399" height="33.4399" filterUnits="userSpaceOnUse" color-interpolation-filters="sRGB">
<feFlood flood-opacity="0" result="BackgroundImageFix"/>
<feColorMatrix in="SourceAlpha" type="matrix" values="0 0 0 0 0 0 0 0 0 0 0 0 0 0 0 0 0 0 127 0" result="hardAlpha"/>
<feOffset dy="1"/>
<feGaussianBlur stdDeviation="0.5"/>
<feComposite in2="hardAlpha" operator="out"/>
<feColorMatrix type="matrix" values="0 0 0 0 0 0 0 0 0 0 0 0 0 0 0 0 0 0 0.25 0"/>
<feBlend mode="normal" in2="BackgroundImageFix" result="effect1_dropShadow_992_353"/>
<feBlend mode="normal" in="SourceGraphic" in2="effect1_dropShadow_992_353" result="shape"/>
</filter>
</defs>
</svg>
