<svg width="32" height="29" viewBox="0 0 32 29" fill="none" xmlns="http://www.w3.org/2000/svg">
<g filter="url(#filter0_d_992_359)">
<path d="M21.0059 26.4595H28.1668C29.4203 26.4595 30.2146 25.5784 30.2146 24.2008V8.36477C30.2146 6.98719 29.4203 6.10603 28.1668 6.10603H21.614V24.2008C21.614 25.0322 21.4154 25.7893 21.0059 26.4595ZM24.4313 12.3858V10.4001C24.4313 10.1394 24.5926 9.96576 24.8657 9.96576H26.9258C27.1865 9.96576 27.3602 10.1394 27.3602 10.4001V12.3858C27.3602 12.6464 27.1865 12.8326 26.9258 12.8326H24.8657C24.5926 12.8326 24.4313 12.6464 24.4313 12.3858ZM24.4313 17.2756V15.2899C24.4313 15.0292 24.5926 14.8556 24.8657 14.8556H26.9258C27.1865 14.8556 27.3602 15.0292 27.3602 15.2899V17.2756C27.3602 17.5362 27.1865 17.71 26.9258 17.71H24.8657C24.5926 17.71 24.4313 17.5362 24.4313 17.2756ZM24.4313 22.1654V20.1797C24.4313 19.9191 24.5926 19.7329 24.8657 19.7329H26.9258C27.1865 19.7329 27.3602 19.9191 27.3602 20.1797V22.1654C27.3602 22.426 27.1865 22.5998 26.9258 22.5998H24.8657C24.5926 22.5998 24.4313 22.426 24.4313 22.1654ZM1 24.2008C1 25.5784 1.79428 26.4595 3.06016 26.4595H17.8537C19.1196 26.4595 19.9138 25.5784 19.9138 24.2008V2.25873C19.9138 0.881153 19.1196 0 17.8537 0H3.06016C1.79428 0 1 0.881153 1 2.25873V24.2008ZM6.16282 24.4614V20.4279C6.16282 19.857 6.53514 19.4847 7.10603 19.4847H13.9194C14.4904 19.4847 14.8626 19.857 14.8626 20.4279V24.4614H6.16282ZM5.75327 6.66451V4.25685C5.75327 3.94658 5.95184 3.72318 6.26211 3.72318H8.74423C9.0545 3.72318 9.2779 3.94658 9.2779 4.25685V6.66451C9.2779 6.98719 9.0545 7.19816 8.74423 7.19816H6.26211C5.95184 7.19816 5.75327 6.98719 5.75327 6.66451ZM11.7476 6.66451V4.25685C11.7476 3.94658 11.9461 3.72318 12.2688 3.72318H14.7386C15.0488 3.72318 15.2723 3.94658 15.2723 4.25685V6.66451C15.2723 6.98719 15.0488 7.19816 14.7386 7.19816H12.2688C11.9461 7.19816 11.7476 6.98719 11.7476 6.66451ZM5.75327 11.728V9.32038C5.75327 9.01009 5.95184 8.78673 6.26211 8.78673H8.74423C9.0545 8.78673 9.2779 9.01009 9.2779 9.32038V11.728C9.2779 12.0507 9.0545 12.2617 8.74423 12.2617H6.26211C5.95184 12.2617 5.75327 12.0507 5.75327 11.728ZM11.7476 11.728V9.32038C11.7476 9.01009 11.9461 8.78673 12.2688 8.78673H14.7386C15.0488 8.78673 15.2723 9.01009 15.2723 9.32038V11.728C15.2723 12.0507 15.0488 12.2617 14.7386 12.2617H12.2688C11.9461 12.2617 11.7476 12.0507 11.7476 11.728ZM5.75327 16.7916V14.384C5.75327 14.0613 5.95184 13.8502 6.26211 13.8502H8.74423C9.0545 13.8502 9.2779 14.0613 9.2779 14.384V16.7916C9.2779 17.1019 9.0545 17.3252 8.74423 17.3252H6.26211C5.95184 17.3252 5.75327 17.1019 5.75327 16.7916ZM11.7476 16.7916V14.384C11.7476 14.0613 11.9461 13.8502 12.2688 13.8502H14.7386C15.0488 13.8502 15.2723 14.0613 15.2723 14.384V16.7916C15.2723 17.1019 15.0488 17.3252 14.7386 17.3252H12.2688C11.9461 17.3252 11.7476 17.1019 11.7476 16.7916Z" fill="#2B4B88"/>
</g>
<defs>
<filter id="filter0_d_992_359" x="0" y="0" width="31.2144" height="28.4595" filterUnits="userSpaceOnUse" color-interpolation-filters="sRGB">
<feFlood flood-opacity="0" result="BackgroundImageFix"/>
<feColorMatrix in="SourceAlpha" type="matrix" values="0 0 0 0 0 0 0 0 0 0 0 0 0 0 0 0 0 0 127 0" result="hardAlpha"/>
<feOffset dy="1"/>
<feGaussianBlur stdDeviation="0.5"/>
<feComposite in2="hardAlpha" operator="out"/>
<feColorMatrix type="matrix" values="0 0 0 0 0 0 0 0 0 0 0 0 0 0 0 0 0 0 0.25 0"/>
<feBlend mode="normal" in2="BackgroundImageFix" result="effect1_dropShadow_992_359"/>
<feBlend mode="normal" in="SourceGraphic" in2="effect1_dropShadow_992_359" result="shape"/>
</filter>
</defs>
</svg>
