<svg width="43" height="29" viewBox="0 0 43 29" fill="none" xmlns="http://www.w3.org/2000/svg">
<rect x="0.564374" y="-0.564374" width="41.7637" height="27.09" rx="3.95062" transform="matrix(1 0 0 -1 0 27.09)" fill="#FED766" stroke="#2B4B88" stroke-width="1.12875"/>
<mask id="mask0_1042_1008" style="mask-type:alpha" maskUnits="userSpaceOnUse" x="0" y="0" width="43" height="29">
<path d="M38.3775 0.564374H4.51501C2.33314 0.564374 0.564384 2.33313 0.564384 4.51499V23.7037C0.564384 25.8856 2.33314 27.6543 4.51501 27.6543H38.3775C40.5593 27.6543 42.3281 25.8856 42.3281 23.7037V4.515C42.3281 2.33313 40.5593 0.564374 38.3775 0.564374Z" fill="#DCC341" stroke="#2B4B88" stroke-width="1.12875"/>
</mask>
<g mask="url(#mask0_1042_1008)">
<line y1="-0.564374" x2="38.8394" y2="-0.564374" transform="matrix(-0.716597 0.697488 0.687546 0.726141 36.4912 1.12891)" stroke="#2B4B88" stroke-width="1.12875"/>
<line y1="-0.564374" x2="38.8394" y2="-0.564374" transform="matrix(-0.716597 0.697488 0.687546 0.726141 23.1316 1.12891)" stroke="#2B4B88" stroke-width="1.12875"/>
<line y1="-0.564374" x2="38.8394" y2="-0.564374" transform="matrix(-0.716597 0.697488 0.687546 0.726141 9.77209 1.12891)" stroke="#2B4B88" stroke-width="1.12875"/>
<line y1="-0.564374" x2="38.8394" y2="-0.564374" transform="matrix(-0.716597 0.697488 0.687546 0.726141 63.2098 1.12891)" stroke="#2B4B88" stroke-width="1.12875"/>
<line y1="-0.564374" x2="38.8394" y2="-0.564374" transform="matrix(-0.716597 0.697488 0.687546 0.726141 49.8503 1.12891)" stroke="#2B4B88" stroke-width="1.12875"/>
</g>
</svg>
