<svg width="293" height="271" viewBox="0 0 293 271" fill="none" xmlns="http://www.w3.org/2000/svg">
<path d="M282.61 96.7644L277.562 99.6762V120.32L272.521 117.408V76.6365L264.953 72.2719L257.391 76.6365V88.2836L249.823 83.9191L244.781 86.8308V59.0229L234.692 53.1994L229.651 56.1111V66.4421L222.083 70.8129V79.5483L214.515 75.1837L206.953 79.5483V88.2836L199.385 83.9191V32.227L191.816 27.8624L184.254 32.227V53.6526L179.207 56.5644V45.2463L171.645 40.8817L164.077 45.2463V63.8656L156.515 59.501L151.467 62.4128V71.1481L143.905 66.7774V31.8359L136.337 27.4651L128.769 31.8359V54.7949L118.68 48.9714L111.118 53.3421V111.584L290.178 214.962V101.135L282.61 96.7644Z" fill="#F0F0F0"/>
<path d="M23.0021 60.3511L22.6917 60.8888L292.539 216.685L292.849 216.147L23.0021 60.3511Z" fill="#E0E0E0"/>
<path d="M262.438 235.344L285.13 222.238L282.603 220.785L259.936 233.904L262.438 235.344Z" fill="#E0E0E0"/>
<path d="M254.87 230.974L277.562 217.874L275.042 216.415L252.368 229.533L254.87 230.974Z" fill="#E0E0E0"/>
<path d="M247.302 226.609L269.994 213.503L267.473 212.05L244.806 225.168L247.302 226.609Z" fill="#E0E0E0"/>
<path d="M239.74 222.238L262.432 209.138L259.905 207.679L237.238 220.798L239.74 222.238Z" fill="#E0E0E0"/>
<path d="M232.172 217.874L254.864 204.767L252.343 203.308L229.67 216.427L232.172 217.874Z" fill="#E0E0E0"/>
<path d="M224.604 213.503L247.296 200.397L244.775 198.944L222.108 212.062L224.604 213.503Z" fill="#E0E0E0"/>
<path d="M217.042 209.138L239.734 196.032L237.207 194.573L214.54 207.692L217.042 209.138Z" fill="#E0E0E0"/>
<path d="M209.473 204.767L232.166 191.661L229.645 190.208L206.971 203.327L209.473 204.767Z" fill="#E0E0E0"/>
<path d="M201.905 200.397L224.597 187.297L222.077 185.838L199.409 198.956L201.905 200.397Z" fill="#E0E0E0"/>
<path d="M194.343 196.032L217.035 182.926L214.515 181.473L191.841 194.592L194.343 196.032Z" fill="#E0E0E0"/>
<path d="M186.775 191.661L209.467 178.561L206.947 177.102L184.273 190.221L186.775 191.661Z" fill="#E0E0E0"/>
<path d="M179.207 187.297L201.899 174.191L199.378 172.732L176.711 185.85L179.207 187.297Z" fill="#E0E0E0"/>
<path d="M171.645 182.926L194.337 169.82L191.816 168.367L169.143 181.486L171.645 182.926Z" fill="#E0E0E0"/>
<path d="M164.077 178.561L186.769 165.455L184.248 163.996L161.575 177.115L164.077 178.561Z" fill="#E0E0E0"/>
<path d="M156.509 174.191L179.201 161.084L176.68 159.632L154.013 172.75L156.509 174.191Z" fill="#E0E0E0"/>
<path d="M148.947 169.82L171.639 156.72L169.118 155.261L146.445 168.379L148.947 169.82Z" fill="#E0E0E0"/>
<path d="M141.379 165.455L164.071 152.349L161.55 150.896L138.877 164.015L141.379 165.455Z" fill="#E0E0E0"/>
<path d="M133.81 161.084L156.502 147.985L153.982 146.526L131.315 159.644L133.81 161.084Z" fill="#E0E0E0"/>
<path d="M126.248 156.72L148.94 143.614L146.42 142.155L123.746 155.273L126.248 156.72Z" fill="#E0E0E0"/>
<path d="M118.68 152.349L141.372 139.243L138.852 137.79L116.178 150.909L118.68 152.349Z" fill="#E0E0E0"/>
<path d="M111.112 147.984L133.804 134.878L131.284 133.419L108.616 146.538L111.112 147.984Z" fill="#E0E0E0"/>
<path d="M103.55 143.614L126.242 130.507L123.722 129.055L101.048 142.173L103.55 143.614Z" fill="#E0E0E0"/>
<path d="M95.982 139.243L118.674 126.143L116.153 124.684L93.48 137.803L95.982 139.243Z" fill="#E0E0E0"/>
<path d="M88.4138 134.878L111.106 121.772L108.585 120.319L85.918 133.438L88.4138 134.878Z" fill="#E0E0E0"/>
<path d="M80.8519 130.508L103.544 117.408L101.023 115.949L78.3499 129.067L80.8519 130.508Z" fill="#E0E0E0"/>
<path d="M73.2836 126.143L95.9757 113.037L93.455 111.584L70.7816 124.696L73.2836 126.143Z" fill="#E0E0E0"/>
<path d="M65.7154 121.772L88.4075 108.672L85.8869 107.213L63.2196 120.332L65.7154 121.772Z" fill="#E0E0E0"/>
<path d="M58.1535 117.407L80.8456 104.301L78.325 102.842L55.6515 115.961L58.1535 117.407Z" fill="#E0E0E0"/>
<path d="M50.5854 113.037L73.2775 99.9304L70.7568 98.4777L48.0834 111.596L50.5854 113.037Z" fill="#E0E0E0"/>
<path d="M43.0172 108.672L65.7093 95.5659L63.1886 94.1069L40.5214 107.226L43.0172 108.672Z" fill="#E0E0E0"/>
<path d="M35.4552 104.301L58.1472 91.1952L55.6266 89.7424L32.9531 102.861L35.4552 104.301Z" fill="#E0E0E0"/>
<path d="M27.887 99.9308L50.5791 86.8308L48.0585 85.3718L25.385 98.4904L27.887 99.9308Z" fill="#E0E0E0"/>
<path d="M20.3189 95.566L43.011 82.4599L40.4903 81.0071L17.8231 94.1194L20.3189 95.566Z" fill="#E0E0E0"/>
<path d="M12.7569 91.1953L35.449 78.0954L32.9284 76.6364L10.2549 89.7549L12.7569 91.1953Z" fill="#E0E0E0"/>
<path d="M5.1888 86.8307L27.8809 73.7245L25.3602 72.2655L2.68677 85.3841L5.1888 86.8307Z" fill="#E0E0E0"/>
<path d="M264.959 236.803L0.153625 83.9189L1.32703 83.2297L266.138 236.12L264.959 236.803Z" fill="#37474F"/>
<path d="M286.471 224.38L21.6786 71.5018L22.852 70.8126L287.651 223.697L286.471 224.38Z" fill="#37474F"/>
<path d="M0.310425 93.8534L0 94.3911L269.847 250.187L270.157 249.65L0.310425 93.8534Z" fill="#E0E0E0"/>
<path d="M58.1597 141.745V270.987H12.7693V147.811C12.7693 127.236 26.3225 118.382 43.0358 128.03C48.5428 131.209 53.7082 136.008 58.1597 141.745Z" fill="#E0E0E0"/>
<path d="M141.379 270.993V189.799C136.927 184.062 131.762 179.244 126.255 176.084C109.541 166.436 95.9882 175.289 95.9882 195.864V270.987L141.379 270.993Z" fill="#E0E0E0"/>
<path d="M224.604 270.994V237.865C220.152 232.128 214.987 227.311 209.48 224.15C192.766 214.502 179.213 223.356 179.213 243.931V270.994H224.604Z" fill="#E0E0E0"/>
<path d="M96.2676 270.994V195.871C96.2676 185.72 99.7071 177.916 105.692 174.458C111.23 171.26 118.488 171.924 126.118 176.32C142.726 185.906 156.242 210.349 156.242 230.8V270.987H156.794V230.806C156.794 210.181 143.136 185.521 126.373 175.842C118.556 171.335 111.112 170.67 105.394 173.98C99.1359 177.587 95.6902 185.36 95.6902 195.871V270.994H96.2676Z" fill="#E0E0E0"/>
<path d="M179.486 270.994V243.906C179.486 233.761 182.926 225.957 188.911 222.499C194.455 219.295 201.707 219.966 209.337 224.361C223.859 232.749 236.033 252.486 238.84 270.987H239.398C236.567 252.306 224.287 232.358 209.598 223.883C201.787 219.376 194.331 218.712 188.619 222.021C182.361 225.634 178.915 233.407 178.915 243.912V271L179.486 270.994Z" fill="#E0E0E0"/>
<path d="M73.5754 182.752V270.987H73.0229V182.752C73.0229 169.155 67.0503 153.796 58.1597 142.211C53.6834 136.368 48.4682 131.482 42.8992 128.272C35.2628 123.864 27.9988 123.2 22.4732 126.41C16.482 129.868 13.0487 137.672 13.0487 147.823V271H12.4962V147.811C12.4962 137.306 15.9419 129.533 22.1938 125.919C27.9119 122.617 35.3621 123.281 43.1724 127.782C59.9354 137.473 73.5754 162.127 73.5754 182.752Z" fill="#E0E0E0"/>
<path d="M156.794 230.806H156.242V270.987H156.794V230.806Z" fill="#E0E0E0"/>
<path d="M96.2737 195.865H95.7212V270.994H96.2737V195.865Z" fill="#E0E0E0"/>
<path d="M90.9406 21.6662C95.9433 21.6662 99.9988 17.6107 99.9988 12.608C99.9988 7.6053 95.9433 3.5498 90.9406 3.5498C85.9379 3.5498 81.8824 7.6053 81.8824 12.608C81.8824 17.6107 85.9379 21.6662 90.9406 21.6662Z" fill="#FFBDA7"/>
<path d="M42.9179 9.04446C39.6088 8.4919 36.7094 11.7079 35.2131 15.6006C32.7297 13.5332 27.2787 11.6458 25.1616 14.5824C28.4459 12.7199 32.4255 14.1727 35.0269 16.5505C35.2069 16.6933 35.685 16.8175 35.8029 16.4388C37.1564 12.1487 40.0309 9.5101 42.9179 9.04446Z" fill="#455A64"/>
<path d="M26.3474 22.2933C23.8205 21.6725 21.4551 24.7767 20.797 27.2601C19.0027 25.5093 16.122 23.5971 13.7379 25.1865C16.6683 24.4725 18.7047 25.9874 20.5673 27.9865C20.6977 28.1107 21.1012 28.2473 21.1881 27.9493C21.8897 25.0499 24.1185 22.4734 26.3474 22.2933Z" fill="#455A64"/>
<path d="M192.99 4.18315C192.99 1.89842 195.473 0.309043 198.335 0.0420775C201.675 -0.274556 204.047 1.21549 204.128 3.84789C206.313 2.95387 208.623 3.53126 208.474 5.93395C209.039 5.27585 211.168 5.3131 211.932 5.48073C212.348 5.59731 212.733 5.8025 213.062 6.08221C213.391 6.36192 213.656 6.70952 213.838 7.10115C214.02 7.48792 214.089 7.91849 214.037 8.34285C215.309 7.92688 218.209 7.67233 218.935 8.83953C220.227 10.9256 215.067 10.9877 214.03 10.3606C213.813 11.981 208.269 12.2232 206.928 10.7518C205.879 11.8072 204.376 12.0369 202.75 12.1362C200.005 12.2977 198.329 11.3664 196.187 10.2737C193.865 12.2418 189.842 12.279 187.744 10.0254C187.21 10.5282 185.738 10.6835 184.559 10.4041C183.783 10.2178 183.603 9.88877 183.603 9.88877C183.146 10.0828 182.669 10.2265 182.181 10.3172C180.66 10.6338 177.835 10.3172 179.021 8.92645C179.424 8.46081 180.883 8.16901 181.504 8.3056C182.168 7.00181 184.832 5.76632 186.359 6.86523C186.415 5.28827 187.862 4.05277 189.892 3.76097C190.6 3.6306 192.239 3.53747 192.99 4.18315Z" fill="#F5F5F5"/>
<path d="M223.337 21.989C224 21.7595 224.697 21.6441 225.398 21.6475C226.069 21.6103 226.28 21.4799 226.41 21.3433C227.066 20.4362 228.012 19.7801 229.091 19.4832C230.17 19.1863 231.318 19.2665 232.346 19.7105C232.654 18.8164 233.288 18.0712 234.12 17.6226C234.953 17.1741 235.924 17.055 236.84 17.2891C236.809 15.2093 239.504 13.0363 241.888 12.5769C244.272 12.1175 246.166 12.3782 247.438 13.9055C248.885 11.211 254.361 10.5529 257.285 12.043C258.968 12.9059 260.389 13.7813 261.072 15.3521C261.515 16.3243 261.713 17.39 261.65 18.4563C262.823 17.463 265.133 17.2146 266.66 17.8355C268.305 18.506 268.405 19.7601 268.46 21.0329C269.45 20.7634 270.494 20.7634 271.484 21.0329C272.521 21.3619 273.111 22.1939 272.955 22.8582C273.781 22.8582 275.737 23.5349 275.495 24.4041C275.221 25.3788 272.974 25.2298 272.13 25.1864C271.34 25.1058 270.558 24.9667 269.789 24.7704C269.39 24.9094 268.97 24.9788 268.547 24.9753C267.113 24.938 266.523 24.311 266.3 23.777C265.573 25.236 263.065 26.3039 261.296 26.7199C257.968 27.5021 253.293 26.8937 251.3 24.3793C251.054 24.8425 250.711 25.247 250.294 25.5651C249.398 26.2557 248.318 26.6661 247.19 26.7447C245.83 26.844 242.174 26.9496 241.193 24.7642C240.435 26.1859 237.17 26.7819 234.711 26.3784C233.756 26.2155 232.83 25.9165 231.961 25.4906C231.426 25.2113 230.908 24.9024 230.408 24.5655C230.214 24.4265 229.986 24.3422 229.748 24.3215C229.51 24.3007 229.271 24.3443 229.055 24.4475C227.297 25.0304 225.392 24.991 223.66 24.3358C222.294 23.7149 222.027 22.5477 223.337 21.989Z" fill="#F5F5F5"/>
<path d="M20.9645 98.0188C21.1321 82.2865 23.0567 59.8489 23.4106 55.801L53.9689 38.1626C54.5401 44.1973 56.2412 63.2884 56.2971 77.6301L20.9645 98.0188Z" fill="#455A64"/>
<path d="M118.066 72.508L55.0182 36.1075L22.2559 55.0373C22.2559 55.0373 19.7353 82.7024 19.7353 100.173L82.7827 136.574L120.611 114.732C120.586 97.2613 118.066 72.508 118.066 72.508Z" fill="#E0E0E0"/>
<path d="M82.9193 127.938C82.8199 130.967 82.7578 133.892 82.7578 136.574L19.7104 100.173C19.7104 97.491 19.7725 94.5855 19.8719 91.5309L82.9193 127.938Z" fill="#2B4B88"/>
<path opacity="0.2" d="M82.9193 127.938C82.8199 130.967 82.7578 133.892 82.7578 136.574L19.7104 100.173C19.7104 97.491 19.7725 94.5855 19.8719 91.5309L82.9193 127.938Z" fill="black"/>
<path d="M85.2783 91.4374L118.065 72.5077C118.065 72.5077 120.586 97.261 120.586 114.726L82.7577 136.567C82.7577 119.103 85.2783 91.4374 85.2783 91.4374Z" fill="#E0E0E0"/>
<path opacity="0.2" d="M85.2783 91.4374L118.065 72.5077C118.065 72.5077 120.586 97.261 120.586 114.726L82.7577 136.567C82.7577 119.103 85.2783 91.4374 85.2783 91.4374Z" fill="black"/>
<path d="M85.2784 91.4377V89.9787L118.066 71.0552V72.508L85.2784 91.4377Z" fill="#2B4B88"/>
<path d="M22.2311 55.0372V53.5782L55.0182 34.6547V36.1075L22.2311 55.0372Z" fill="#2B4B88"/>
<path d="M85.2785 89.9787L22.2311 53.5782L55.0182 34.6547L118.066 71.0551L85.2785 89.9787Z" fill="#2B4B88"/>
<path opacity="0.3" d="M85.2785 89.9787L22.2311 53.5782L55.0182 34.6547L118.066 71.0551L85.2785 89.9787Z" fill="white"/>
<path d="M85.2785 89.9786V91.4376L22.2311 55.0371V53.5781L85.2785 89.9786Z" fill="#2B4B88"/>
<path opacity="0.15" d="M85.2785 89.9786V91.4376L22.2311 55.0371V53.5781L85.2785 89.9786Z" fill="white"/>
<path d="M81.8575 92.3814C81.3795 97.969 80.3302 111.069 79.8398 123.25L22.9264 90.376C23.4355 78.0583 24.4971 64.8466 24.9504 59.5073L81.8575 92.3814Z" fill="#37474F"/>
<path d="M25.4719 88.9914C25.894 79.5358 26.6142 69.745 27.1047 63.6296L79.2562 93.7409C78.8216 98.9685 78.0145 108.927 77.5488 119.053L25.4719 88.9914Z" fill="#455A64"/>
<path d="M38.7396 99.5149L41.9059 101.34C42.4088 89.0722 43.4642 75.8854 43.9237 70.4777L40.7635 68.6462C40.3041 74.0539 39.2425 87.2345 38.7396 99.5149Z" fill="#37474F"/>
<path d="M58.0478 110.666L61.2079 112.491C61.7108 100.217 62.7725 87.0359 63.2319 81.6221L60.0718 79.8217C59.6123 85.2044 58.5507 98.3851 58.0478 110.666Z" fill="#37474F"/>
<path d="M42.4087 78.3314V79.5731L80.2371 101.415V100.173L42.4087 78.3314Z" fill="#37474F"/>
<path d="M26.8379 63.1145L26.7944 63.605C26.3784 68.8388 25.6024 79.1262 25.1616 88.9791C24.7332 96.9881 24.7456 98.9128 24.758 100.962C24.758 101.322 24.758 101.682 24.758 102.085V102.259L38.6961 110.33V109.802C38.6961 109.74 38.783 103.675 39.1618 96.7646C39.5963 87.5077 40.3103 77.8845 40.8318 71.4401V71.2477L26.8379 63.1145ZM25.3789 100.986C25.3789 98.95 25.3789 97.0316 25.7824 89.035C26.2108 79.4677 26.9496 69.5403 27.378 64.201L33.2016 67.566C32.8104 72.7998 32.0158 82.9258 31.5687 92.6856C31.1404 100.701 31.1528 102.619 31.1652 104.668C31.1652 104.861 31.1652 105.059 31.1652 105.258L25.3602 101.905C25.3602 101.551 25.3602 101.266 25.3602 100.962L25.3789 100.986ZM38.5533 96.7274C38.2429 102.495 38.1311 107.661 38.1001 109.287L31.8047 105.643C31.8047 105.314 31.8047 105.022 31.8047 104.693C31.8047 102.656 31.8047 100.738 32.2082 92.7353C32.6366 83.1556 33.3754 73.2344 33.8038 67.9013L40.2172 71.6264C39.6895 78.0025 38.9817 87.5326 38.5533 96.7025V96.7274Z" fill="#263238"/>
<path d="M95.3673 63.4993L67.6277 47.4813L60.0595 51.8521V52.3985L87.7991 68.4164L95.3673 64.0456V63.4993Z" fill="#2B4B88"/>
<path d="M60.0595 51.8521L87.7991 67.8701L95.3673 63.4993L67.6277 47.4813L60.0595 51.8521Z" fill="#2B4B88"/>
<path opacity="0.3" d="M60.0595 51.8523L87.7991 67.8702L95.3673 63.4995L67.6277 47.6802L60.0595 51.8523Z" fill="white"/>
<path opacity="0.15" d="M60.0595 51.8522L87.7991 67.8701V68.4165L60.0595 52.3985V51.8522Z" fill="black"/>
<path d="M87.7991 67.8703L95.3673 63.4995V64.0459L87.7991 68.4166V67.8703Z" fill="#2B4B88"/>
<path d="M87.799 67.8762L60.0594 51.8583L52.4974 56.2291V57.6819L80.237 72.7872L87.799 68.4226V67.8762Z" fill="#EBEBEB"/>
<path d="M52.4974 56.2291L80.237 72.247L87.799 67.8762L60.0594 51.8583L52.4974 56.2291Z" fill="#2B4B88"/>
<path opacity="0.6" d="M52.4974 56.2291L80.237 72.247L87.799 67.8762L60.0594 51.8583L52.4974 56.2291Z" fill="white"/>
<path d="M80.2371 72.2473L87.7991 67.8765V68.4228L80.2371 72.7874V72.2473Z" fill="#2B4B88"/>
<path opacity="0.3" d="M80.2371 72.2473L87.7991 67.8765V68.4228L80.2371 72.7874V72.2473Z" fill="white"/>
<path d="M80.237 72.2349L52.4912 56.2231L44.9293 60.5877V61.1341L72.6689 77.152L80.237 72.7812V72.2349Z" fill="#2B4B88"/>
<path d="M44.9293 60.5877L72.6689 76.6057L80.237 72.2349L52.4912 56.2231L44.9293 60.5877Z" fill="#2B4B88"/>
<path opacity="0.3" d="M45.3204 60.5877L72.6689 76.6057L80.2371 72.2349L52.4913 56.2231L45.3204 60.5877Z" fill="white"/>
<path opacity="0.15" d="M44.9293 60.5876L72.6689 76.6056V77.1519L44.9293 61.134V60.5876Z" fill="white"/>
<path d="M72.6689 76.6055L80.2371 72.2347V72.7811L72.6689 77.1519V76.6055Z" fill="#2B4B88"/>
<path d="M79.7155 70.4095L84.6513 67.566C84.9493 67.3922 85.1045 67.2059 84.999 67.1438C84.7382 67.1227 84.4784 67.1954 84.2664 67.3487L79.3306 70.1922C79.0326 70.3661 78.8774 70.5523 78.9891 70.6144C79.1009 70.6765 79.4237 70.5833 79.7155 70.4095Z" fill="#455A64"/>
<path d="M77.5612 69.1676L82.4969 66.3241C82.7949 66.1502 82.9502 65.964 82.8446 65.9019C82.5844 65.8773 82.3241 65.9479 82.112 66.1006L77.1762 68.9503C76.8782 69.1179 76.723 69.3041 76.8286 69.3662C77.089 69.3938 77.3503 69.3229 77.5612 69.1676Z" fill="#455A64"/>
<path d="M75.4069 67.9198L80.3427 65.0764C80.6407 64.9025 80.7959 64.7163 80.6842 64.6542C80.4234 64.6336 80.1638 64.7062 79.9516 64.859L75.0282 67.7025C74.7302 67.8764 74.575 68.0626 74.6806 68.1247C74.9393 68.1443 75.1966 68.0718 75.4069 67.9198Z" fill="#455A64"/>
<path d="M73.2525 66.6781L78.2193 63.8284C78.5173 63.6608 78.6725 63.4745 78.5608 63.4125C78.3004 63.3855 78.0393 63.4563 77.8282 63.6111L72.8614 66.4546C72.5696 66.6285 72.4144 66.8147 72.5199 66.8768C72.6255 66.9389 72.9545 66.8458 73.2525 66.6781Z" fill="#455A64"/>
<path d="M71.0982 65.4302L76.065 62.5867C76.363 62.4129 76.512 62.2266 76.4065 62.1645C76.301 62.1024 75.9719 62.1956 75.6739 62.3694L70.7071 65.2129C70.4091 65.3868 70.2601 65.573 70.3656 65.6351C70.6264 65.6556 70.886 65.5831 71.0982 65.4302Z" fill="#455A64"/>
<path d="M68.9438 64.1886L73.9107 61.3389C74.2087 61.1713 74.3577 60.9788 74.2521 60.923C73.9917 60.896 73.7306 60.9668 73.5195 61.1216L68.5527 63.9651C68.2547 64.139 68.0995 64.3252 68.2112 64.3873C68.323 64.4494 68.6458 64.3563 68.9438 64.1886Z" fill="#455A64"/>
<path d="M66.7896 62.9406L71.7564 60.0971C72.0482 59.9232 72.2034 59.737 72.0978 59.6749C71.8377 59.6509 71.5776 59.7214 71.3652 59.8736L66.3984 62.7233C66.1004 62.8909 65.9452 63.0834 66.0569 63.1392C66.3173 63.1662 66.5784 63.0953 66.7896 62.9406Z" fill="#455A64"/>
<path d="M64.629 61.6989L69.5958 58.8492C69.8938 58.6815 70.049 58.4891 69.9435 58.4332C69.683 58.4057 69.4217 58.4765 69.2109 58.6318L64.244 61.4753C63.946 61.6492 63.7908 61.8354 63.8964 61.8975C64.1566 61.9221 64.4168 61.8515 64.629 61.6989Z" fill="#455A64"/>
<path d="M62.4746 60.4509L67.4414 57.6074C67.7394 57.4335 67.8946 57.2473 67.7828 57.1852C67.6711 57.1231 67.3482 57.1852 67.0564 57.3839L62.0896 60.2336C61.7916 60.4012 61.6364 60.5937 61.742 60.6495C62.0024 60.6771 62.2637 60.6062 62.4746 60.4509Z" fill="#455A64"/>
<path d="M60.3202 59.2094L65.287 56.3597C65.585 56.192 65.7402 55.9996 65.6284 55.9437C65.368 55.9168 65.1069 55.9876 64.8958 56.1424L59.9601 58.9859C59.6683 59.1597 59.5131 59.346 59.6186 59.4081C59.7241 59.4701 60.0222 59.377 60.3202 59.2094Z" fill="#455A64"/>
<path d="M58.1659 57.9615L63.1327 55.118C63.4307 54.9442 63.5797 54.7579 63.4742 54.6958C63.3686 54.6337 63.0396 54.6958 62.7416 54.8945L57.7748 57.7442C57.4768 57.9118 57.3278 58.1043 57.4333 58.1602C57.6937 58.1871 57.9548 58.1163 58.1659 57.9615Z" fill="#455A64"/>
<path d="M56.0116 56.7136L60.9473 53.8701C61.2453 53.6962 61.3943 53.51 61.2888 53.4479C61.0281 53.4273 60.7685 53.4999 60.5562 53.6528L55.5894 56.4963C55.2914 56.6701 55.1362 56.8564 55.2479 56.9184C55.3597 56.9805 55.7136 56.8874 56.0116 56.7136Z" fill="#455A64"/>
<path d="M125.627 117.65C125.572 103.308 123.87 84.2172 123.299 78.1825L117.016 74.5505L86.458 92.1889C86.1041 96.2493 84.1795 118.687 84.0118 134.407L90.2948 138.033L125.627 117.65Z" fill="#37474F"/>
<path d="M86.4581 92.1889L92.7411 95.8209L123.299 78.1825L117.016 74.5505L86.4581 92.1889Z" fill="#455A64"/>
<path d="M90.2949 138.045C90.4688 122.319 92.3872 99.8811 92.7473 95.827L123.299 78.1886C123.871 84.2233 125.572 103.314 125.628 117.656L90.2949 138.045Z" fill="#263238"/>
<path d="M90.2949 138.045C90.4688 122.319 92.3872 99.8812 92.7473 95.8271L123.299 78.1825C123.871 84.2234 125.572 103.315 125.628 117.656L90.2949 138.045Z" fill="#455A64"/>
<path d="M187.402 112.541L124.349 76.1401L91.5676 95.0699C91.5676 95.0699 89.0408 122.735 89.0408 140.206L152.088 176.606L189.917 154.765C189.917 137.294 187.402 112.541 187.402 112.541Z" fill="#E0E0E0"/>
<path d="M152.25 167.982C152.15 171.012 152.088 173.936 152.088 176.618L89.0408 140.206C89.0408 137.524 89.1029 134.618 89.2022 131.563L152.25 167.982Z" fill="#2B4B88"/>
<path opacity="0.2" d="M152.25 167.982C152.15 171.012 152.088 173.936 152.088 176.618L89.0408 140.206C89.0408 137.524 89.1029 134.618 89.2022 131.563L152.25 167.982Z" fill="black"/>
<path d="M154.609 131.47L187.402 112.54C187.402 112.54 189.923 137.294 189.923 154.758L152.094 176.6C152.088 159.135 154.609 131.47 154.609 131.47Z" fill="#E0E0E0"/>
<path opacity="0.2" d="M154.609 131.47L187.402 112.54C187.402 112.54 189.923 137.294 189.923 154.758L152.094 176.6C152.088 159.135 154.609 131.47 154.609 131.47Z" fill="black"/>
<path d="M154.615 131.47V130.011L187.396 111.081V112.54L154.615 131.47Z" fill="#2B4B88"/>
<path d="M91.5615 95.0695V93.6105L124.349 74.6808V76.1398L91.5615 95.0695Z" fill="#2B4B88"/>
<path d="M154.615 130.011L91.5615 93.6105L124.349 74.6808L187.396 111.081L154.615 130.011Z" fill="#2B4B88"/>
<path opacity="0.3" d="M154.615 130.011L91.5615 93.6105L124.349 74.6808L187.396 111.081L154.615 130.011Z" fill="white"/>
<path d="M154.615 130.011V131.47L91.5615 95.0697V93.6107L154.615 130.011Z" fill="#2B4B88"/>
<path opacity="0.15" d="M154.615 130.011V131.47L91.5615 95.0697V93.6107L154.615 130.011Z" fill="white"/>
<path d="M151.2 132.414C150.722 138.001 149.673 151.101 149.183 163.282L92.2568 130.421C92.7659 118.103 93.8276 104.891 94.2808 99.5521L151.2 132.414Z" fill="#37474F"/>
<path d="M94.8023 129.024C95.2245 119.568 95.9509 109.778 96.4351 103.662L148.587 133.773C148.152 139.001 147.345 148.96 146.879 159.086L94.8023 129.024Z" fill="#455A64"/>
<path d="M108.07 139.548L111.236 141.373C111.739 129.099 112.795 115.918 113.26 110.504L110.094 108.679C109.634 114.086 108.554 127.267 108.07 139.548Z" fill="#37474F"/>
<path d="M127.378 150.698L130.545 152.523C131.047 140.249 132.103 127.068 132.569 121.655L129.402 119.829C128.943 125.231 127.881 138.411 127.378 150.698Z" fill="#37474F"/>
<path d="M111.739 118.364V119.606L149.567 141.441V140.206L111.739 118.364Z" fill="#37474F"/>
<path d="M96.1681 103.147L96.1309 103.637C95.7087 108.871 94.9388 119.128 94.4918 129.005C94.0696 137.021 94.0821 138.939 94.0945 140.994V142.292L108.033 150.363V149.829C108.033 149.773 108.119 143.707 108.492 136.791C108.927 127.534 109.641 117.911 110.162 111.466V111.268L96.1681 103.147ZM94.7153 140.988C94.7153 138.958 94.7153 137.033 95.1127 129.036C95.5411 119.469 96.2799 109.542 96.7082 104.202L102.532 107.561C102.11 112.851 101.352 122.977 100.911 132.737C100.489 140.752 100.502 142.67 100.514 144.725V145.315L94.7153 141.963V140.988ZM107.89 136.735C107.573 142.503 107.461 147.668 107.43 149.295L101.135 145.632V144.701C101.135 142.664 101.135 140.746 101.532 132.743C101.961 123.163 102.699 113.242 103.128 107.909L109.541 111.634C109.02 118.035 108.318 127.565 107.89 136.735Z" fill="#263238"/>
<path d="M164.698 103.532L136.958 87.5139L129.39 91.8847V92.4311L157.136 108.443L164.698 104.078V103.532Z" fill="#2B4B88"/>
<path d="M129.39 91.8847L157.136 107.903L164.698 103.532L136.958 87.5139L129.39 91.8847Z" fill="#2B4B88"/>
<path opacity="0.3" d="M129.39 91.8846L157.136 107.903L164.698 103.532L136.958 87.7125L129.39 91.8846Z" fill="white"/>
<path opacity="0.15" d="M129.39 91.8846L157.136 107.903V108.443L129.39 92.431V91.8846Z" fill="black"/>
<path d="M157.136 107.903L164.698 103.532V104.078L157.136 108.443V107.903Z" fill="#2B4B88"/>
<path d="M157.136 107.909L129.39 91.8909L121.828 96.2617V97.7145L149.567 112.82L157.136 108.455V107.909Z" fill="#EBEBEB"/>
<path d="M121.828 96.2617L149.567 112.273L157.136 107.909L129.39 91.8909L121.828 96.2617Z" fill="#2B4B88"/>
<path opacity="0.6" d="M121.828 96.2617L149.567 112.273L157.136 107.909L129.39 91.8909L121.828 96.2617Z" fill="white"/>
<path d="M149.568 112.273L157.136 107.909V108.455L149.568 112.82V112.273Z" fill="#2B4B88"/>
<path opacity="0.3" d="M149.568 112.273L157.136 107.909V108.455L149.568 112.82V112.273Z" fill="white"/>
<path d="M149.567 112.267L121.828 96.2491L114.26 100.62V101.166L141.999 117.184L149.567 112.813V112.267Z" fill="#2B4B88"/>
<path d="M114.26 100.62L141.999 116.638L149.567 112.267L121.828 96.2491L114.26 100.62Z" fill="#2B4B88"/>
<path opacity="0.3" d="M114.651 100.62L141.999 116.638L149.568 112.267L121.828 96.2491L114.651 100.62Z" fill="white"/>
<path opacity="0.15" d="M114.26 100.62L141.999 116.638V117.184L114.26 101.166V100.62Z" fill="white"/>
<path d="M141.999 116.638L149.568 112.267V112.814L141.999 117.184V116.638Z" fill="#2B4B88"/>
<path d="M149.052 110.442L154.019 107.598C154.317 107.425 154.466 107.238 154.36 107.176C154.255 107.114 153.926 107.207 153.628 107.375L148.661 110.225C148.363 110.392 148.214 110.585 148.32 110.647C148.58 110.667 148.84 110.595 149.052 110.442Z" fill="#455A64"/>
<path d="M146.898 109.2L151.834 106.351C152.125 106.183 152.281 105.99 152.175 105.935C151.915 105.908 151.654 105.978 151.443 106.133L146.507 109.002C146.209 109.175 146.054 109.362 146.165 109.424C146.277 109.486 146.6 109.368 146.898 109.2Z" fill="#455A64"/>
<path d="M144.737 107.952L149.673 105.109C149.971 104.935 150.126 104.749 150.021 104.687C149.761 104.663 149.5 104.733 149.288 104.885L144.321 107.735C144.023 107.903 143.868 108.095 143.974 108.151C144.244 108.187 144.519 108.116 144.737 107.952Z" fill="#455A64"/>
<path d="M142.583 106.711L147.519 103.861C147.817 103.693 147.972 103.501 147.866 103.445C147.606 103.417 147.344 103.488 147.134 103.644L142.198 106.518C141.9 106.692 141.745 106.878 141.85 106.94C142.114 106.955 142.375 106.874 142.583 106.711Z" fill="#455A64"/>
<path d="M140.429 105.463L145.364 102.619C145.662 102.445 145.818 102.259 145.706 102.197C145.594 102.135 145.271 102.228 144.973 102.396L140.037 105.276C139.746 105.444 139.59 105.636 139.696 105.692C139.96 105.71 140.222 105.628 140.429 105.463Z" fill="#455A64"/>
<path d="M138.274 104.215L143.21 101.371C143.508 101.198 143.663 101.011 143.551 100.949C143.291 100.929 143.031 101.001 142.819 101.154L137.883 103.998C137.585 104.171 137.436 104.358 137.542 104.42C137.647 104.482 137.976 104.389 138.274 104.215Z" fill="#455A64"/>
<path d="M136.12 102.973L141.056 100.129C141.354 99.9557 141.503 99.7694 141.397 99.7073C141.292 99.6452 140.962 99.7384 140.664 99.906L135.729 102.756C135.431 102.923 135.282 103.11 135.387 103.172C135.648 103.199 135.909 103.128 136.12 102.973Z" fill="#455A64"/>
<path d="M133.966 101.725L138.901 98.8816C139.193 98.7078 139.348 98.5216 139.243 98.4595C138.982 98.4389 138.722 98.5115 138.51 98.6644L133.574 101.508C133.276 101.682 133.121 101.868 133.233 101.93C133.494 101.951 133.753 101.878 133.966 101.725Z" fill="#455A64"/>
<path d="M131.805 100.483L136.772 97.6337C137.07 97.4661 137.225 97.2798 137.119 97.2177C136.859 97.1937 136.599 97.2643 136.387 97.4164L131.451 100.266C131.153 100.434 130.998 100.62 131.11 100.682C131.221 100.744 131.526 100.651 131.805 100.483Z" fill="#455A64"/>
<path d="M129.663 99.2355L134.63 96.392C134.928 96.2182 135.083 96.0319 134.978 95.9698C134.717 95.9482 134.457 96.0209 134.245 96.1747L129.309 99.0182C129.011 99.192 128.856 99.3783 128.961 99.4404C129.212 99.4541 129.459 99.3818 129.663 99.2355Z" fill="#455A64"/>
<path d="M127.496 97.9938L132.463 95.1441C132.761 94.9765 132.916 94.784 132.805 94.7281C132.544 94.7012 132.283 94.772 132.072 94.9268L127.142 97.7703C126.844 97.9441 126.689 98.1304 126.795 98.1925C127.045 98.209 127.292 98.1389 127.496 97.9938Z" fill="#455A64"/>
<path d="M125.317 96.7461L130.284 93.9026C130.582 93.7287 130.737 93.5425 130.625 93.4804C130.514 93.4183 130.191 93.5114 129.893 93.6791L124.926 96.5288C124.634 96.6964 124.479 96.8889 124.585 96.9509C124.845 96.9715 125.105 96.8989 125.317 96.7461Z" fill="#455A64"/>
<path d="M194.958 157.682C194.902 143.341 193.207 124.25 192.63 118.209L186.347 114.589L155.795 132.221C155.435 136.282 153.516 158.719 153.342 174.439L159.625 178.071L194.958 157.682Z" fill="#37474F"/>
<path d="M155.795 132.221L162.078 135.853L192.63 118.209L186.347 114.583L155.795 132.221Z" fill="#455A64"/>
<path d="M159.625 178.077C159.799 162.351 161.718 139.914 162.078 135.86L192.63 118.215C193.207 124.256 194.902 143.347 194.958 157.689L159.625 178.077Z" fill="#263238"/>
<path d="M159.631 178.077C159.799 162.351 161.718 139.914 162.078 135.86L192.63 118.215C193.207 124.256 194.902 143.347 194.958 157.689L159.631 178.077Z" fill="#455A64"/>
<path d="M278.189 209.176C278.187 203.064 276.881 197.024 274.359 191.457L265.698 172.328C259.865 159.462 250.149 148.745 237.915 141.683L193.679 116.148L160.898 135.077C160.898 135.077 158.377 162.742 158.377 180.213L207.027 208.338C216.591 213.858 226.812 218.153 237.449 221.121L248.817 224.3C252.532 225.339 256.417 225.626 260.245 225.143C264.072 224.66 267.765 223.417 271.105 221.487C273.263 220.237 275.053 218.442 276.297 216.281C277.54 214.119 278.193 211.669 278.189 209.176Z" fill="#E0E0E0"/>
<path d="M277.661 202.52C277.391 200.809 277.018 199.115 276.544 197.448L271.378 206.177L250.443 207.624C250.443 207.624 252.97 211.74 253.616 213.006C268.113 213.118 275.749 210.15 277.661 202.52Z" fill="#263238"/>
<path d="M253.169 209.436C253.183 209.681 253.251 209.919 253.368 210.133C253.485 210.348 253.648 210.534 253.846 210.678C254.462 211.091 255.154 211.378 255.882 211.521C256.61 211.663 257.359 211.66 258.086 211.51C258.707 211.404 259.408 211.057 259.471 210.43C259.601 209.07 257.043 208.567 256.112 208.4C255.18 208.232 253.324 208.176 253.169 209.436Z" fill="#FAFAFA"/>
<path d="M261.706 211.566C261.991 211.517 262.122 211.43 262.184 211.318C262.225 211.213 262.235 211.099 262.213 210.989C262.191 210.879 262.138 210.778 262.059 210.697C261.881 210.461 261.642 210.279 261.367 210.169C261.092 210.06 260.793 210.028 260.501 210.076C260.412 210.092 260.326 210.125 260.25 210.174C260.173 210.223 260.107 210.286 260.055 210.361C260.003 210.435 259.967 210.519 259.947 210.608C259.928 210.696 259.926 210.788 259.942 210.877C260.042 211.61 261.085 211.678 261.706 211.566Z" fill="#FAFAFA"/>
<path d="M277.606 202.129C277.405 202.259 277.169 202.326 276.93 202.32C276.691 202.315 276.459 202.237 276.265 202.098C275.172 201.291 275.892 199.615 276.19 199.037C276.342 198.747 276.541 198.485 276.78 198.261C277.612 199.453 277.661 201.136 277.606 202.129Z" fill="#FAFAFA"/>
<path d="M276.519 204.166C276.45 204.274 276.342 204.352 276.217 204.383C276.092 204.414 275.961 204.396 275.849 204.333C275.669 204.217 275.541 204.037 275.488 203.83C275.364 203.315 275.377 202.856 275.712 202.62C275.845 202.541 275.999 202.506 276.152 202.519C276.306 202.533 276.452 202.594 276.569 202.694C277.084 203.054 276.805 203.837 276.519 204.166Z" fill="#FAFAFA"/>
<path d="M277.959 211.684C277.425 215.322 270.987 222.859 259.036 222.605C247.084 222.35 236.977 216.638 221.586 208.002L158.539 171.596C158.439 174.619 158.384 177.537 158.384 180.219L207.027 208.338C216.591 213.858 226.812 218.153 237.449 221.121L248.817 224.3C252.532 225.338 256.417 225.623 260.244 225.14C264.072 224.658 267.764 223.416 271.105 221.487C272.894 220.453 274.435 219.041 275.622 217.35C276.809 215.659 277.613 213.73 277.978 211.696L277.959 211.684Z" fill="#2B4B88"/>
<path opacity="0.2" d="M277.959 211.684C277.425 215.322 270.987 222.859 259.036 222.605C247.084 222.35 236.977 216.638 221.586 208.002L158.539 171.596C158.439 174.619 158.384 177.537 158.384 180.219L207.027 208.338C216.591 213.858 226.812 218.153 237.449 221.121L248.817 224.3C252.532 225.338 256.417 225.623 260.244 225.14C264.072 224.658 267.764 223.416 271.105 221.487C272.894 220.453 274.435 219.041 275.622 217.35C276.809 215.659 277.613 213.73 277.978 211.696L277.959 211.684Z" fill="black"/>
<path d="M160.898 135.102V133.643L193.679 114.713V116.172L160.898 135.102Z" fill="#2B4B88"/>
<path d="M239.311 141.075L193.679 114.713L160.898 133.643L206.531 160.004C218.153 166.691 232.793 174.768 252.97 208.636L271.378 206.152L276.55 197.417C260.942 153.541 249.04 146.873 239.311 141.075Z" fill="#2B4B88"/>
<path opacity="0.3" d="M239.311 141.075L193.679 114.713L160.898 133.643L206.531 160.004C218.153 166.691 232.793 174.768 252.97 208.636L271.378 206.152L276.55 197.417C260.942 153.541 249.04 146.873 239.311 141.075Z" fill="white"/>
<path d="M273.812 197.162L269.857 203.861L253.715 204.923C242.397 186.179 233.327 176.451 225.001 169.429C238.119 164.946 246.799 159.781 251.697 154.019C258.105 161.339 265.387 173.719 273.812 197.162Z" fill="#37474F"/>
<path d="M272.459 197.051L269.106 202.731L254.386 203.601C249.371 195.207 243.634 187.267 237.238 179.872C245.737 176.42 253.262 172.297 259.272 167.15C263.674 174.93 268.038 184.838 272.459 197.051Z" fill="#455A64"/>
<path d="M206.531 160.004V161.463C218.153 168.15 234.649 180.592 250.443 207.624L252.97 208.636C232.793 174.768 218.153 166.691 206.531 160.004Z" fill="#2B4B88"/>
<path opacity="0.15" d="M206.531 160.004V161.463C218.153 168.15 234.649 180.592 250.443 207.624L252.97 208.636C232.793 174.768 218.153 166.691 206.531 160.004Z" fill="white"/>
<path d="M206.531 160.004V161.463L160.898 135.102V133.643L206.531 160.004Z" fill="#2B4B88"/>
<path opacity="0.15" d="M206.531 160.004V161.463L160.898 135.102V133.643L206.531 160.004Z" fill="white"/>
<path d="M218.612 203.371L161.687 170.466C162.196 158.148 163.257 144.936 163.711 139.597L207.791 165.052C216.818 170.267 225.02 176.587 231.625 184.658C237.107 191.347 242.111 198.413 246.6 205.804L231.7 210.945L218.612 203.371Z" fill="#37474F"/>
<path d="M228.738 183.888C228.738 183.888 229.434 188.855 232.066 208.636L243.676 204.687C243.676 204.687 235.313 191.73 228.738 183.888Z" fill="#455A64"/>
<path opacity="0.1" d="M228.738 183.888C228.738 183.888 229.434 188.855 232.066 208.636L243.676 204.687C243.676 204.687 235.313 191.73 228.738 183.888Z" fill="white"/>
<path d="M228.738 183.889C226.64 181.79 220.667 176.606 220.667 176.606C220.667 176.606 219.103 194.896 218.91 200.62L232.079 208.636L228.738 183.889Z" fill="#455A64"/>
<path d="M164.362 169.274C164.785 159.818 165.505 150.027 165.989 143.912L218.14 174.029C217.7 179.257 216.899 189.209 216.427 199.342L164.362 169.274Z" fill="#455A64"/>
<path d="M199.49 192.307L202.65 194.133C203.153 181.858 204.215 168.678 204.674 163.264L201.514 161.439C201.061 166.846 199.993 180.027 199.49 192.307Z" fill="#37474F"/>
<path d="M180.256 181.213L183.423 183.038C183.925 170.77 184.987 157.583 185.447 152.176L182.286 150.313C181.815 155.752 180.765 168.932 180.256 181.213Z" fill="#37474F"/>
<path d="M165.114 149.158V150.4L202.942 172.241V171L165.114 149.158Z" fill="#37474F"/>
<path d="M204.165 165.499L204.128 165.983C203.706 171.223 202.936 181.504 202.495 191.357C202.067 199.373 202.079 201.291 202.091 203.346C202.091 203.7 202.091 204.066 202.091 204.464V204.612L216.03 212.684V212.15C216.03 212.088 216.116 206.028 216.495 199.112C216.93 189.849 217.644 180.225 218.165 173.781V173.589L204.165 165.499ZM202.712 203.34C202.712 201.303 202.712 199.385 203.116 191.388C203.544 181.815 204.283 171.887 204.705 166.523L210.535 169.888C210.107 175.178 209.349 185.304 208.915 195.064C208.486 203.079 208.499 204.997 208.511 207.052C208.511 207.245 208.511 207.437 208.511 207.673L202.712 204.314C202.712 203.936 202.712 203.625 202.706 203.321L202.712 203.34ZM215.887 199.087C215.57 204.855 215.458 210.02 215.434 211.647L209.132 207.984C209.132 207.648 209.132 207.332 209.132 207.028C209.132 204.997 209.132 203.073 209.535 195.076C209.964 185.497 210.703 175.575 211.125 170.211L217.544 173.936C217.017 180.362 216.309 189.892 215.881 199.068L215.887 199.087Z" fill="#263238"/>
<path d="M230.03 141.236L202.284 125.224L194.722 129.589V130.135L222.462 146.153L230.03 141.782V141.236Z" fill="#2B4B88"/>
<path d="M194.722 129.589L222.462 145.607L230.03 141.236L202.284 125.224L194.722 129.589Z" fill="#2B4B88"/>
<path opacity="0.3" d="M194.722 129.589L222.462 145.607L230.03 141.236L202.284 125.423L194.722 129.589Z" fill="white"/>
<path opacity="0.15" d="M194.722 129.589L222.462 145.607V146.153L194.722 130.135V129.589Z" fill="black"/>
<path d="M222.462 145.607L230.03 141.236V141.783L222.462 146.153V145.607Z" fill="#2B4B88"/>
<path d="M222.462 145.613L194.722 129.595L187.154 133.966V135.425L214.893 150.524L222.462 146.159V145.613Z" fill="#EBEBEB"/>
<path d="M187.154 133.966L214.893 149.984L222.462 145.613L194.722 129.595L187.154 133.966Z" fill="#2B4B88"/>
<path opacity="0.6" d="M187.154 133.966L214.893 149.984L222.462 145.613L194.722 129.595L187.154 133.966Z" fill="white"/>
<path d="M214.893 149.984L222.461 145.613V146.16L214.893 150.524V149.984Z" fill="#2B4B88"/>
<path opacity="0.3" d="M214.893 149.984L222.461 145.613V146.16L214.893 150.524V149.984Z" fill="white"/>
<path d="M214.9 149.978L187.154 133.96L179.592 138.324V138.871L207.331 154.889L214.9 150.518V149.978Z" fill="#2B4B88"/>
<path d="M179.592 138.324L207.331 154.342L214.9 149.978L187.154 133.96L179.592 138.324Z" fill="#2B4B88"/>
<path opacity="0.3" d="M179.977 138.324L207.331 154.342L214.9 149.978L187.154 133.96L179.977 138.324Z" fill="white"/>
<path opacity="0.15" d="M179.592 138.324L207.331 154.342V154.889L179.592 138.871V138.324Z" fill="white"/>
<path d="M207.331 154.342L214.9 149.978V150.518L207.331 154.889V154.342Z" fill="#2B4B88"/>
<path d="M214.378 148.152L219.314 145.303C219.612 145.129 219.767 144.943 219.655 144.88C219.395 144.86 219.135 144.933 218.923 145.085L213.993 147.929C213.695 148.103 213.54 148.289 213.646 148.351C213.906 148.375 214.166 148.305 214.378 148.152Z" fill="#455A64"/>
<path d="M212.236 146.904L217.172 144.061C217.47 143.887 217.625 143.701 217.513 143.639C217.402 143.577 217.079 143.639 216.781 143.837L211.845 146.687C211.553 146.855 211.398 147.041 211.504 147.103C211.764 147.13 212.025 147.059 212.236 146.904Z" fill="#455A64"/>
<path d="M210.069 145.632L215.005 142.788C215.303 142.614 215.452 142.428 215.347 142.366C215.086 142.345 214.826 142.418 214.614 142.571L209.678 145.414C209.38 145.588 209.231 145.774 209.337 145.837C209.597 145.857 209.857 145.784 210.069 145.632Z" fill="#455A64"/>
<path d="M207.89 144.39L212.826 141.54C213.124 141.373 213.273 141.187 213.167 141.124C213.062 141.062 212.733 141.155 212.435 141.323L207.499 144.173C207.201 144.34 207.046 144.527 207.158 144.589C207.269 144.651 207.617 144.583 207.89 144.39Z" fill="#455A64"/>
<path d="M205.761 143.148L210.696 140.305C210.988 140.131 211.143 139.945 211.038 139.883C210.777 139.862 210.518 139.935 210.305 140.087L205.37 142.931C205.072 143.105 204.916 143.291 205.028 143.353C205.289 143.374 205.548 143.301 205.761 143.148Z" fill="#455A64"/>
<path d="M203.6 141.907L208.567 139.057C208.865 138.889 209.02 138.697 208.915 138.641C208.654 138.614 208.393 138.684 208.182 138.84L203.246 141.683C202.948 141.857 202.793 142.043 202.899 142.105C203.148 142.123 203.396 142.052 203.6 141.907Z" fill="#455A64"/>
<path d="M201.446 140.665L206.382 137.822C206.68 137.648 206.835 137.461 206.723 137.399C206.611 137.337 206.289 137.43 205.997 137.598L201.061 140.46C200.763 140.628 200.608 140.82 200.713 140.882C200.976 140.9 201.236 140.823 201.446 140.665Z" fill="#455A64"/>
<path d="M199.291 139.423L204.258 136.573C204.556 136.406 204.711 136.213 204.6 136.157C204.339 136.131 204.078 136.201 203.867 136.356L198.9 139.2C198.609 139.373 198.453 139.56 198.559 139.622C198.664 139.684 198.993 139.603 199.291 139.423Z" fill="#455A64"/>
<path d="M197.137 138.181L202.073 135.338C202.371 135.164 202.52 134.978 202.414 134.916C202.309 134.854 201.98 134.947 201.682 135.114L196.746 137.964C196.448 138.132 196.299 138.324 196.405 138.38C196.665 138.407 196.926 138.336 197.137 138.181Z" fill="#455A64"/>
<path d="M194.983 136.94L199.95 134.09C200.248 133.922 200.397 133.73 200.291 133.674C200.031 133.647 199.77 133.718 199.558 133.873L194.623 136.716C194.325 136.89 194.169 137.076 194.281 137.138C194.393 137.2 194.685 137.114 194.983 136.94Z" fill="#455A64"/>
<path d="M192.828 135.698L197.764 132.855C198.056 132.681 198.211 132.495 198.106 132.433C198 132.37 197.671 132.433 197.373 132.631L192.437 135.481C192.139 135.649 191.984 135.841 192.096 135.897C192.356 135.924 192.617 135.853 192.828 135.698Z" fill="#455A64"/>
<path d="M190.668 134.456L195.604 131.607C195.902 131.439 196.057 131.247 195.951 131.185C195.69 131.164 195.431 131.236 195.219 131.389L190.283 134.233C189.985 134.407 189.83 134.593 189.935 134.655C190.195 134.68 190.456 134.609 190.668 134.456Z" fill="#455A64"/>
</svg>
