<svg width="51" height="51" viewBox="0 0 51 51" fill="none" xmlns="http://www.w3.org/2000/svg">
<circle cx="25.8544" cy="25.8711" r="25.0926" fill="#2B4B88"/>
<path d="M23.1403 34.9858H31.4642V37.7605H23.1403C19.3112 37.7605 16.2036 34.6528 16.2036 30.8238V18.3379H18.9783V30.8238C18.9783 33.1268 20.8373 34.9858 23.1403 34.9858ZM25.1103 16.132C26.1924 15.0499 26.1924 13.288 25.1103 12.2059C24.0281 11.1238 22.2662 11.1238 21.1841 12.2059C20.102 13.288 20.102 15.0499 21.1841 16.132C22.2662 17.228 24.0143 17.228 25.1103 16.132ZM26.6086 21.1125C26.6086 19.5865 25.36 18.3379 23.8339 18.3379H23.1403C21.6142 18.3379 20.3656 19.5865 20.3656 21.1125V29.4365C20.3656 31.7395 22.2246 33.5985 24.5276 33.5985H31.5613L36.417 38.4541L38.4009 36.4702L31.3671 29.4365H26.6086V21.1125Z" fill="white"/>
</svg>
