<svg width="51" height="52" viewBox="0 0 51 52" fill="none" xmlns="http://www.w3.org/2000/svg">
<circle cx="24.1291" cy="24.9059" r="15.4416" fill="white"/>
<path d="M25.094 51.1054C21.6797 51.1054 18.4615 50.4519 15.4393 49.145C12.4334 47.8381 9.77874 46.033 7.47532 43.7296C5.17191 41.4261 3.36675 38.7715 2.05984 35.7656C0.752939 32.7434 0.0994871 29.5251 0.0994871 26.1109C0.0994871 22.6966 0.752939 19.4865 2.05984 16.4806C3.36675 13.4584 5.16374 10.7956 7.45082 8.49217C9.75424 6.18875 12.4089 4.38359 15.4148 3.07669C18.437 1.76978 21.6552 1.11633 25.0695 1.11633C28.4838 1.11633 31.702 1.76978 34.7243 3.07669C37.7465 4.38359 40.4093 6.18875 42.7127 8.49217C45.0161 10.7956 46.8213 13.4584 48.1282 16.4806C49.4351 19.4865 50.0885 22.6966 50.0885 26.1109C50.0885 29.5251 49.4351 32.7434 48.1282 35.7656C46.8213 38.7715 45.0161 41.4261 42.7127 43.7296C40.4093 46.033 37.7465 47.8381 34.7243 49.145C31.7184 50.4519 28.5083 51.1054 25.094 51.1054ZM6.7647 29.1494C6.7647 30.4563 7.08325 31.6489 7.72037 32.7271C8.35748 33.8053 9.21514 34.6629 10.2933 35.3C11.3715 35.9371 12.5641 36.2557 13.871 36.2557C15.0962 36.2557 16.2234 35.9698 17.2526 35.398C18.2981 34.8263 19.1476 34.0585 19.8011 33.0946C20.4545 32.1145 20.8384 31.0199 20.9528 29.811H23.5992C24.1057 29.811 24.5141 29.7457 24.8245 29.615C25.1349 29.4843 25.4289 29.2638 25.7066 28.9534L32.1023 21.4795L32.7639 23.0723C31.7184 23.6768 30.8689 24.5181 30.2154 25.5963C29.5783 26.6581 29.2598 27.8425 29.2598 29.1494C29.2598 30.4563 29.5783 31.6489 30.2154 32.7271C30.8689 33.8053 31.7266 34.6629 32.7884 35.3C33.8666 35.9371 35.0592 36.2557 36.3661 36.2557C37.673 36.2557 38.8655 35.9371 39.9437 35.3C41.0219 34.6629 41.8796 33.8053 42.5167 32.7271C43.1538 31.6489 43.4723 30.4563 43.4723 29.1494C43.4723 27.8425 43.1538 26.6581 42.5167 25.5963C41.8796 24.5181 41.0219 23.6604 39.9437 23.0233C38.8655 22.3862 37.673 22.0676 36.3661 22.0676C35.7289 22.0676 35.149 22.1493 34.6262 22.3127L31.3672 14.3242C31.1221 13.7688 30.6647 13.4911 29.9949 13.4911H26.8828C26.5888 13.4911 26.3356 13.5891 26.1232 13.7851C25.9272 13.9812 25.8292 14.218 25.8292 14.4958C25.8292 14.7735 25.9272 15.0185 26.1232 15.2309C26.3192 15.4269 26.5725 15.5249 26.8828 15.5249H29.7009L31.2446 19.3721L21.6144 20.6219L20.1196 17.9264H21.1243C21.4184 17.9264 21.6716 17.8284 21.8839 17.6323C22.0963 17.4363 22.2025 17.1994 22.2025 16.9217C22.2025 16.6276 22.0963 16.3826 21.8839 16.1866C21.6716 15.9905 21.4184 15.8925 21.1243 15.8925H16.3704C16.0927 15.8925 15.8477 15.9905 15.6353 16.1866C15.4393 16.3826 15.3412 16.6276 15.3412 16.9217C15.3412 17.1994 15.4393 17.4363 15.6353 17.6323C15.8477 17.8284 16.0927 17.9264 16.3704 17.9264H17.8162L19.605 21.112L17.7672 23.2438C16.591 22.4597 15.2922 22.0676 13.871 22.0676C12.5641 22.0676 11.3715 22.3862 10.2933 23.0233C9.21514 23.6604 8.35748 24.5181 7.72037 25.5963C7.08325 26.6581 6.7647 27.8425 6.7647 29.1494ZM8.84757 29.1249C8.84757 27.7363 9.33766 26.5519 10.3178 25.5718C11.298 24.5916 12.4906 24.1015 13.8955 24.1015C14.3529 24.1015 14.794 24.1668 15.2187 24.2975C15.6435 24.4119 16.0355 24.5753 16.3949 24.7876L14.067 27.4831C13.5116 27.4504 13.0542 27.6056 12.6948 27.9487C12.3517 28.2754 12.1802 28.6757 12.1802 29.1494C12.1802 29.6395 12.3435 30.0479 12.6703 30.3746C12.997 30.685 13.4054 30.8402 13.8955 30.8402C14.3529 30.8402 14.745 30.685 15.0717 30.3746C15.3984 30.0479 15.5618 29.6395 15.5618 29.1494C15.5618 29.0514 15.5536 28.9534 15.5373 28.8554L17.9632 26.1599C18.6003 27.042 18.9189 28.0304 18.9189 29.1249C18.9189 30.5462 18.4288 31.7469 17.4486 32.7271C16.4685 33.6909 15.2841 34.1728 13.8955 34.1728C12.4906 34.1728 11.298 33.6909 10.3178 32.7271C9.33766 31.7469 8.84757 30.5462 8.84757 29.1249ZM31.3427 29.1249C31.3427 28.2591 31.5387 27.4749 31.9308 26.7725C32.3392 26.0537 32.8701 25.4656 33.5235 25.0082L34.8958 28.3898C34.7651 28.6512 34.6998 28.9044 34.6998 29.1494C34.6998 29.6395 34.8631 30.0479 35.1898 30.3746C35.5166 30.685 35.925 30.8402 36.4151 30.8402C36.8725 30.8402 37.2646 30.685 37.5913 30.3746C37.918 30.0479 38.0814 29.6395 38.0814 29.1494C38.0814 28.7247 37.9507 28.3653 37.6893 28.0712C37.4279 27.7608 37.1094 27.5648 36.7336 27.4831L35.4104 24.224C35.7208 24.1423 36.0557 24.1015 36.4151 24.1015C37.7873 24.1015 38.9635 24.5916 39.9437 25.5718C40.9402 26.5519 41.4385 27.7363 41.4385 29.1249C41.4385 30.5462 40.9402 31.7469 39.9437 32.7271C38.9635 33.6909 37.7873 34.1728 36.4151 34.1728C35.0101 34.1728 33.8094 33.6909 32.8129 32.7271C31.8327 31.7469 31.3427 30.5462 31.3427 29.1249ZM22.6681 22.5332L29.6763 21.3325L25.0205 26.699L22.6681 22.5332ZM19.36 24.6406L20.7322 23.1213L23.3542 27.8507H20.8547C20.7404 27.2462 20.5525 26.6745 20.2911 26.1354C20.0298 25.5963 19.7194 25.098 19.36 24.6406Z" fill="#2B4B88"/>
</svg>
