<svg width="40" height="12" viewBox="0 0 40 12" fill="none" xmlns="http://www.w3.org/2000/svg">
<path d="M5.56701 11.134C8.61251 11.134 11.134 8.60706 11.134 5.56701C11.134 2.52153 8.60706 0 5.56156 0C2.52153 0 0 2.52153 0 5.56701C0 8.60706 2.52699 11.134 5.56701 11.134Z" fill="#2B4B88"/>
<path d="M19.5392 11.134C22.5847 11.134 25.1062 8.60706 25.1062 5.56701C25.1062 2.52153 22.5792 0 19.5337 0C16.4937 0 13.9722 2.52153 13.9722 5.56701C13.9722 8.60706 16.4992 11.134 19.5392 11.134Z" fill="#2B4B88"/>
<path d="M33.5113 11.134C36.5568 11.134 39.0784 8.60706 39.0784 5.56701C39.0784 2.52153 36.5514 0 33.5059 0C30.4659 0 27.9443 2.52153 27.9443 5.56701C27.9443 8.60706 30.4713 11.134 33.5113 11.134Z" fill="#2B4B88"/>
</svg>
