<svg width="45" height="29" viewBox="0 0 45 29" fill="none" xmlns="http://www.w3.org/2000/svg">
<path d="M40.08 8.56874L42.334 21.7167C42.8659 24.8197 40.4759 27.6543 37.3276 27.6543H4.51499C2.33312 27.6543 0.564374 25.8856 0.564374 23.7037V4.515C0.564374 2.33313 2.33313 0.564374 4.515 0.564374H12.9806H30.3086C35.0568 0.564374 39.1454 3.91408 40.08 8.56874Z" fill="#F8E066" stroke="#2B4B88" stroke-width="1.12875"/>
<mask id="mask0_1047_1659" style="mask-type:alpha" maskUnits="userSpaceOnUse" x="0" y="0" width="43" height="29">
<path d="M40.08 8.56874L42.334 21.7167C42.8659 24.8197 40.4759 27.6543 37.3276 27.6543H4.51499C2.33312 27.6543 0.564374 25.8856 0.564374 23.7037V4.515C0.564374 2.33313 2.33313 0.564374 4.515 0.564374H12.9806H30.3086C35.0568 0.564374 39.1454 3.91408 40.08 8.56874Z" fill="#9A142C" stroke="#2B4B88" stroke-width="1.12875"/>
</mask>
<g mask="url(#mask0_1047_1659)">
<line y1="-0.564374" x2="38.8394" y2="-0.564374" transform="matrix(0.716597 0.697488 -0.687546 0.726141 7.53003 1.12878)" stroke="#2B4B88" stroke-width="1.12875"/>
<line y1="-0.564374" x2="38.8394" y2="-0.564374" transform="matrix(0.716597 0.697488 -0.687546 0.726141 20.8896 1.12878)" stroke="#2B4B88" stroke-width="1.12875"/>
<line y1="-0.564374" x2="38.8394" y2="-0.564374" transform="matrix(0.716597 0.697488 -0.687546 0.726141 27.5692 1.12878)" stroke="#2B4B88" stroke-width="1.12875"/>
<line y1="-0.564374" x2="38.8394" y2="-0.564374" transform="matrix(0.716597 0.697488 -0.687546 0.726141 34.2491 1.12878)" stroke="#2B4B88" stroke-width="1.12875"/>
<line y1="-0.564374" x2="38.8394" y2="-0.564374" transform="matrix(0.716597 0.697488 -0.687546 0.726141 -12.509 1.12878)" stroke="#2B4B88" stroke-width="1.12875"/>
<line y1="-0.564374" x2="38.8394" y2="-0.564374" transform="matrix(0.716597 0.697488 -0.687546 0.726141 -19.1886 1.12878)" stroke="#2B4B88" stroke-width="1.12875"/>
<line y1="-0.564374" x2="38.8394" y2="-0.564374" transform="matrix(0.716597 0.697488 -0.687546 0.726141 -5.82922 1.12878)" stroke="#2B4B88" stroke-width="1.12875"/>
<line y1="-0.564374" x2="38.8394" y2="-0.564374" transform="matrix(0.716597 0.697488 -0.687546 0.726141 0.850464 1.12878)" stroke="#2B4B88" stroke-width="1.12875"/>
<line y1="-0.564374" x2="38.8394" y2="-0.564374" transform="matrix(0.716597 0.697488 -0.687546 0.726141 14.21 1.12878)" stroke="#2B4B88" stroke-width="1.12875"/>
</g>
</svg>
