<svg width="53" height="29" viewBox="0 0 53 29" fill="none" xmlns="http://www.w3.org/2000/svg">
<path d="M5.77805 16.1693L4.83478 18.3703C2.95122 22.7653 6.17505 27.6543 10.9566 27.6543H47.9718C50.1537 27.6543 51.9224 25.8856 51.9224 23.7037V4.515C51.9224 2.33313 50.1537 0.564374 47.9718 0.564374H39.5062H27.7699C23.3956 0.564374 19.1228 1.88241 15.5087 4.34662C11.2055 7.28057 7.82965 11.3823 5.77805 16.1693Z" fill="#5FAD41" stroke="#2B4B88" stroke-width="1.12875"/>
<mask id="mask0_1047_1597" style="mask-type:alpha" maskUnits="userSpaceOnUse" x="3" y="0" width="50" height="29">
<path d="M5.77805 16.1693L4.83478 18.3703C2.95122 22.7653 6.17505 27.6543 10.9566 27.6543H47.9718C50.1537 27.6543 51.9224 25.8856 51.9224 23.7037V4.515C51.9224 2.33313 50.1537 0.564374 47.9718 0.564374H39.5062H27.7699C23.3956 0.564374 19.1228 1.88241 15.5087 4.34662C11.2055 7.28057 7.82965 11.3823 5.77805 16.1693Z" fill="#5B8C5A" stroke="#2B4B88" stroke-width="1.12875"/>
</mask>
<g mask="url(#mask0_1047_1597)">
<line y1="-0.564374" x2="38.8394" y2="-0.564374" transform="matrix(0.716597 0.697488 -0.687546 0.726141 17.5302 1.12878)" stroke="#2B4B88" stroke-width="1.12875"/>
<line y1="-0.564374" x2="38.8394" y2="-0.564374" transform="matrix(0.716597 0.697488 -0.687546 0.726141 30.8895 1.12878)" stroke="#2B4B88" stroke-width="1.12875"/>
<line y1="-0.564374" x2="38.8394" y2="-0.564374" transform="matrix(0.716597 0.697488 -0.687546 0.726141 37.5692 1.12878)" stroke="#2B4B88" stroke-width="1.12875"/>
<line y1="-0.564374" x2="38.8394" y2="-0.564374" transform="matrix(0.716597 0.697488 -0.687546 0.726141 44.2491 1.12878)" stroke="#2B4B88" stroke-width="1.12875"/>
<line y1="-0.564374" x2="38.8394" y2="-0.564374" transform="matrix(0.716597 0.697488 -0.687546 0.726141 -2.50916 1.12878)" stroke="#2B4B88" stroke-width="1.12875"/>
<line y1="-0.564374" x2="38.8394" y2="-0.564374" transform="matrix(0.716597 0.697488 -0.687546 0.726141 -16.1886 1.12878)" stroke="#2B4B88" stroke-width="1.12875"/>
<line y1="-0.564374" x2="38.8394" y2="-0.564374" transform="matrix(0.716597 0.697488 -0.687546 0.726141 -9.1886 1.12878)" stroke="#2B4B88" stroke-width="1.12875"/>
<line y1="-0.564374" x2="38.8394" y2="-0.564374" transform="matrix(0.716597 0.697488 -0.687546 0.726141 4.17078 1.12878)" stroke="#2B4B88" stroke-width="1.12875"/>
<line y1="-0.564374" x2="38.8394" y2="-0.564374" transform="matrix(0.716597 0.697488 -0.687546 0.726141 10.8505 1.12878)" stroke="#2B4B88" stroke-width="1.12875"/>
<line y1="-0.564374" x2="38.8394" y2="-0.564374" transform="matrix(0.716597 0.697488 -0.687546 0.726141 24.2101 1.12878)" stroke="#2B4B88" stroke-width="1.12875"/>
</g>
</svg>
